<svg width="42" height="32" viewBox="0 0 42 32" fill="none" xmlns="http://www.w3.org/2000/svg">
<path d="M0.6875 10.8954C0.6875 5.26938 5.62321 0.9375 11.4167 0.9375C14.4031 0.9375 17.0309 2.33779 18.9167 4.14965C20.8024 2.33779 23.4303 0.9375 26.4167 0.9375C32.2101 0.9375 37.1458 5.26938 37.1458 10.8954C37.1458 11.2337 37.1332 11.5684 37.1085 11.8995C37.085 12.2159 36.8164 12.4537 36.499 12.4537H34.6297C34.2473 12.4537 33.956 12.1133 33.9869 11.7321C34.0094 11.4551 34.0208 11.1762 34.0208 10.8954C34.0208 7.24812 30.7484 4.0625 26.4167 4.0625C23.9289 4.0625 21.6058 5.5488 20.1553 7.43525C19.8596 7.81992 19.4019 8.04534 18.9167 8.04534C18.4314 8.04534 17.9738 7.81992 17.678 7.43525C16.2275 5.5488 13.9045 4.0625 11.4167 4.0625C7.0849 4.0625 3.8125 7.24812 3.8125 10.8954C3.8125 13.8194 5.05372 16.5417 7.05436 19.0588C9.05892 21.5809 11.7561 23.8061 14.4807 25.6937C15.5117 26.4079 16.4828 27.0157 17.3134 27.4387C18.2055 27.893 18.7222 28.0208 18.9167 28.0208C19.1111 28.0208 19.6278 27.893 20.5199 27.4387C21.3505 27.0157 22.3216 26.4079 23.3526 25.6937C24.2401 25.0788 25.1246 24.4282 25.9833 23.7432C26.2864 23.5013 26.7358 23.5826 26.9286 23.9191L27.8695 25.5615C28.0221 25.8279 27.959 26.166 27.7178 26.356C26.8596 27.0324 25.9902 27.6681 25.1322 28.2624C24.0449 29.0157 22.9448 29.7106 21.9381 30.2234C20.9927 30.7048 19.9057 31.1458 18.9167 31.1458C17.9276 31.1458 16.8406 30.7048 15.8953 30.2234C14.8885 29.7106 13.7885 29.0157 12.7011 28.2624C9.85427 26.2902 6.88098 23.863 4.60796 21.0032C2.331 18.1384 0.6875 14.7493 0.6875 10.8954Z" fill="#FA6569"/>
<path d="M26.8475 10.1823C26.6233 9.69317 26.1632 9.35379 25.6297 9.28403C25.0961 9.21427 24.5642 9.42393 24.2218 9.83899L19.9162 15.0579H16.8333C15.9704 15.0579 15.2708 15.7574 15.2708 16.6204C15.2708 17.4833 15.9704 18.1829 16.8333 18.1829H20.6528C21.1192 18.1829 21.5612 17.9745 21.858 17.6147L25.0456 13.7511L28.781 21.901C29.0052 22.3902 29.4653 22.7296 29.9988 22.7993C30.5323 22.8691 31.0642 22.6594 31.4067 22.2444L34.7574 18.1829H39.75C40.6129 18.1829 41.3125 17.4833 41.3125 16.6204C41.3125 15.7574 40.6129 15.0579 39.75 15.0579H34.0208C33.5544 15.0579 33.1124 15.2662 32.8156 15.626L30.5829 18.3323L26.8475 10.1823Z" fill="#FA6569"/>
</svg>
