<?xml version="1.0" encoding="UTF-8"?>
<!DOCTYPE svg PUBLIC "-//W3C//DTD SVG 1.1//EN" "http://www.w3.org/Graphics/SVG/1.1/DTD/svg11.dtd">
<!-- Creator: CorelDRAW -->
<svg xmlns="http://www.w3.org/2000/svg" xml:space="preserve" width="43.3493mm" height="43.3494mm" version="1.1" style="shape-rendering:geometricPrecision; text-rendering:geometricPrecision; image-rendering:optimizeQuality; fill-rule:evenodd; clip-rule:evenodd"
viewBox="0 0 3692.96 3692.97"
 xmlns:xlink="http://www.w3.org/1999/xlink"
 xmlns:xodm="http://www.corel.com/coreldraw/odm/2003">
 <defs>
  <style type="text/css">
   <![CDATA[
    .fil0 {fill:#FE5D01}
    .fil1 {fill:white}
    .fil2 {fill:black;fill-rule:nonzero;fill-opacity:0.000000}
   ]]>
  </style>
 </defs>
 <g id="Camada_x0020_1">
  <metadata id="CorelCorpID_0Corel-Layer"/>
  <g id="_2785483233920">
   <image x="0" y="-0" width="3690" height="3690.01" xlink:href="logo_Images\logo_ImgID1.png"/>
   <path class="fil0" d="M3276.67 3349.45c110.95,73.55 238.21,-11.51 164.99,-128.86 -73.54,-117.67 -1490.67,-2168.86 -1575.41,-2279.81 -85.05,-110.95 -168.18,-137.17 -277.54,-117.67 -109.35,19.5 -287.45,53.71 -360.67,215.51 -73.55,161.79 -156.67,344.37 -178.1,378.9 -21.11,34.21 -63.63,4.8 -125.66,-29.42 -62.03,-34.21 -377.3,-168.18 -489.86,-235.02 -112.55,-66.82 -213.91,34.21 -147.08,127.26 66.82,93.05 548.69,559.88 615.51,627.03 66.83,66.83 230.22,99.77 331.59,-21.1 53.71,-64.27 101.04,-118.63 133.66,-155.72 12.46,-14.39 28.45,-22.06 47.31,-23.33 18.87,-1.29 35.81,4.47 49.88,17.26 548.37,484.42 1263.34,1139.91 1811.38,1624.97zm-2172.7 -3157.85c-171.39,0 -310.15,138.78 -310.15,310.16 0,171.39 138.77,310.15 310.15,310.15 171.39,0 310.15,-138.77 310.15,-310.15 0,-171.39 -138.77,-310.16 -310.15,-310.16zm265.07 1746.15c-84.73,92.41 -172.99,189.29 -211.36,233.74 -85.05,97.84 -97.84,199.2 6.4,297.04 104.55,97.85 532.38,398.41 702.17,509.36 169.79,110.95 303.76,29.42 209.12,-81.54 -94.65,-110.95 -271.15,-323.26 -342.77,-411.51 -31.97,-39.01 7.04,-93.05 71.3,-148.37 15.99,-13.75 24.62,-31.97 24.62,-53.4 0,-21.1 -7.99,-39.65 -23.97,-53.71l-335.75 -297.05c-29.42,-25.26 -73.54,-23.02 -99.76,5.44zm802.89 -1022.56c33.9,10.88 69.06,22.39 105.84,35.18 293.52,101.04 691.94,258.03 825.91,316.55 133.98,58.83 75.15,225.42 -62.03,199.2 -68.11,-13.11 -394.25,-67.79 -705.69,-119.58 -20.15,-3.19 -36.14,-13.75 -47.32,-30.69 -73.22,-109.36 -140.37,-209.12 -197.28,-293.53 -17.27,-25.58 -16.31,-57.55 1.92,-82.17 18.55,-24.62 49.24,-34.21 78.66,-24.94z"/>
   <path class="fil1" d="M3255.42 3388.61c110.95,73.54 238.21,-11.52 164.99,-128.86 -73.55,-117.67 -1490.67,-2168.86 -1575.41,-2279.81 -85.05,-110.95 -168.18,-137.17 -277.54,-117.67 -109.35,19.5 -287.45,53.71 -360.67,215.51 -73.55,161.79 -156.67,344.37 -178.1,378.9 -21.1,34.21 -63.63,4.8 -125.66,-29.42 -62.03,-34.21 -377.3,-168.19 -489.86,-235.02 -112.55,-66.82 -213.91,34.21 -147.08,127.26 66.82,93.05 548.69,559.88 615.51,627.03 66.83,66.82 230.22,99.77 331.59,-21.1 53.71,-64.27 101.04,-118.63 133.66,-155.72 12.46,-14.39 28.45,-22.06 47.31,-23.34 18.87,-1.28 35.81,4.48 49.89,17.27 548.36,484.42 1263.33,1139.9 1811.38,1624.97zm-2172.7 -3157.85c-171.39,0 -310.15,138.78 -310.15,310.15 0,171.39 138.77,310.16 310.15,310.16 171.39,0 310.15,-138.78 310.15,-310.16 0,-171.38 -138.77,-310.15 -310.15,-310.15zm265.07 1746.15c-84.73,92.41 -172.99,189.29 -211.36,233.74 -85.05,97.84 -97.84,199.2 6.4,297.04 104.55,97.84 532.38,398.41 702.17,509.36 169.79,110.95 303.76,29.42 209.12,-81.54 -94.65,-110.95 -271.15,-323.26 -342.77,-411.52 -31.97,-39.01 7.04,-93.05 71.3,-148.36 15.99,-13.75 24.62,-31.98 24.62,-53.4 0,-21.1 -7.99,-39.65 -23.98,-53.72l-335.74 -297.04c-29.42,-25.26 -73.54,-23.03 -99.76,5.44zm802.89 -1022.56c33.9,10.87 69.06,22.39 105.84,35.18 293.52,101.04 691.94,258.03 825.91,316.55 133.98,58.83 75.15,225.42 -62.03,199.2 -68.11,-13.11 -394.25,-67.79 -705.69,-119.58 -20.15,-3.2 -36.14,-13.75 -47.32,-30.69 -73.22,-109.36 -140.37,-209.12 -197.28,-293.53 -17.27,-25.58 -16.31,-57.55 1.92,-82.17 18.55,-24.62 49.24,-34.21 78.66,-24.94z"/>
   <polygon class="fil2" points="-0,3692.97 3692.96,3692.97 3692.96,0 -0,0 "/>
   <polygon class="fil2" points="220.5,3424.17 3514.96,3424.17 3514.96,190.49 220.5,190.49 "/>
   <polygon class="fil2" points="199.25,3463.33 3493.71,3463.33 3493.71,229.64 199.25,229.64 "/>
  </g>
 </g>
</svg>
